#!OML:ASF E:\Style4\Style4.ASF
:FULLY-SPECIFIED
:DEGREES
931
root 0.0531664 17.7888 -2.12031 7.54544 13.8894 3.21205
lowerback 12.9231 6.71937 4.1687
upperback 4.01366 9.48078 2.16183
thorax -2.64274 4.70261 -1.43949
lowerneck 1.43534 -7.26398 -3.90202
upperneck -7.99943 -10.1016 -2.74056
head -2.74035 -4.81771 0.0569799
rclavicle 4.13472e-014 1.90833e-014
rhumerus 64.7914 9.75457 -65.1078
rradius 46.1552
rwrist -46.6677
rhand -32.2196 27.4434
rfingers 7.12502
rthumb -5.46074 -2.46628
lclavicle 4.13472e-014 1.90833e-014
lhumerus 70.6737 18.5965 8.88703
lradius 49.2526
lwrist -24.9928
lhand -4.37984 13.1883
lfingers 7.12502
lthumb 21.3892 42.0277
rfemur -24.4729 -10.3133 15.8978
rtibia 36.2874
rfoot -17.4577 -18.7595
rtoes -7.68595
lfemur -25.6883 -2.08171 -23.1091
ltibia 30.5299
lfoot -11.1945 -0.445155
ltoes -7.57494
932
root 0.0704334 17.7739 -2.1409 7.50285 13.3506 3.17872
lowerback 13.0264 6.66509 4.11655
upperback 4.1286 9.40063 2.13518
thorax -2.58533 4.66556 -1.43252
lowerneck 1.38876 -7.14754 -4.01552
upperneck -7.90743 -9.93965 -2.69737
head -2.69294 -4.73892 0.080079
rclavicle 5.96354e-014 -1.74931e-014
rhumerus 64.4047 10.403 -64.6235
rradius 46.5092
rwrist -46.272
rhand -31.8261 27.4956
rfingers 7.12502
rthumb -5.08082 -2.42353
lclavicle 5.96354e-014 -1.74931e-014
lhumerus 70.9885 18.4878 8.95259
lradius 49.6071
lwrist -24.491
lhand -3.30209 12.78
lfingers 7.12502
lthumb 22.424 41.4983
rfemur -24.8226 -10.0305 15.8293
rtibia 36.665
rfoot -17.4602 -18.5303
rtoes -7.652
lfemur -25.9697 -1.83303 -23.1724
ltibia 31.0669
lfoot -11.4887 -0.210599
ltoes -7.40475
933
root 0.0864992 17.7566 -2.16262 7.49502 12.8029 3.20163
lowerback 13.1719 6.64742 4.01236
upperback 4.19427 9.36464 2.06628
thorax -2.60136 4.64761 -1.45626
lowerneck 1.46048 -7.04954 -4.08127
upperneck -7.90612 -9.81222 -2.65518
head -2.70038 -4.67444 0.103764
rclavicle -4.05521e-014 6.20208e-014
rhumerus 63.9654 10.9835 -63.9567
rradius 46.8439
rwrist -45.878
rhand -31.5484 27.579
rfingers 7.12502
rthumb -4.81263 -2.34637
lclavicle -4.05521e-014 6.20208e-014
lhumerus 71.5126 18.1334 9.28743
lradius 49.9043
lwrist -24.032
lhand -2.95022 12.8415
lfingers 7.12502
lthumb 22.7617 41.5187
rfemur -25.218 -9.7832 15.7144
rtibia 37.0438
rfoot -17.4042 -18.3183
rtoes -7.76247
lfemur -26.2707 -1.60211 -23.284
ltibia 31.6015
lfoot -11.7529 -0.00178646
ltoes -7.33096
934
root 0.102648 17.7391 -2.18373 7.44266 12.2412 3.19078
lowerback 13.3419 6.63102 3.94681
upperback 4.27684 9.33612 2.01791
thorax -2.60956 4.63366 -1.48216
lowerneck 1.47302 -6.94046 -4.30522
upperneck -7.85621 -9.66125 -2.49933
head -2.66661 -4.59969 0.183557
rclavicle 5.1684e-014 -4.29375e-014
rhumerus 63.577 11.5665 -63.2358
rradius 47.0956
rwrist -45.3062
rhand -31.2657 26.815
rfingers 7.12502
rthumb -4.53968 -3.11633
lclavicle 5.1684e-014 -4.29375e-014
lhumerus 71.8691 17.8053 9.33987
lradius 50.2865
lwrist -23.3417
lhand -3.17764 13.4272
lfingers 7.12502
lthumb 22.5435 42.1311
rfemur -25.5721 -9.56599 15.6561
rtibia 37.428
rfoot -17.2463 -18.1227
rtoes -8.48524
lfemur -26.524 -1.32365 -23.3644
ltibia 32.1329
lfoot -11.9926 0.183577
ltoes -7.2749
935
root 0.117805 17.7226 -2.20209 7.44273 11.6778 3.1536
lowerback 13.3801 6.57698 3.83567
upperback 4.38279 9.24684 2.01732
thorax -2.54056 4.59194 -1.40821
lowerneck 1.44106 -6.82172 -4.57642
upperneck -7.81197 -9.49918 -2.37729
head -2.62726 -4.51722 0.258495
rclavicle 4.85035e-014 6.36111e-015
rhumerus 63.29 12.3258 -62.4205
rradius 47.3598
rwrist -44.5769
rhand -30.8975 26.1089
rfingers 7.12502
rthumb -4.18414 -3.82971
lclavicle 4.85035e-014 6.36111e-015
lhumerus 72.0316 17.5667 9.31105
lradius 50.6993
lwrist -22.8558
lhand -3.02007 13.8798
lfingers 7.12502
lthumb 22.6947 42.5652
rfemur -25.9921 -9.34963 15.6493
rtibia 37.8242
rfoot -17.0702 -17.9761
rtoes -9.50297
lfemur -26.8451 -1.02086 -23.4181
ltibia 32.652
lfoot -12.2509 0.405318
ltoes -7.52588
936
root 0.130914 17.7049 -2.22114 7.43377 11.1584 3.06567
lowerback 13.4327 6.49839 3.82455
upperback 4.47894 9.13722 1.96822
thorax -2.46624 4.54057 -1.4362
lowerneck 1.49211 -6.73197 -4.52589
upperneck -7.91013 -9.38943 -2.42877
head -2.67599 -4.45894 0.236747
rclavicle 9.22361e-014 1.59028e-015
rhumerus 62.966 13.0869 -61.552
rradius 47.6966
rwrist -43.8053
rhand -30.4467 25.9282
rfingers 7.12502
rthumb -3.74887 -4.01854
lclavicle 9.22361e-014 1.59028e-015
lhumerus 72.2537 17.3175 9.26263
lradius 51.1505
lwrist -22.4061
lhand -2.54325 13.9011
lfingers 7.12502
lthumb 23.1523 42.5298
rfemur -26.3942 -9.11902 15.696
rtibia 38.2076
rfoot -17.0632 -17.7334
rtoes -9.98249
lfemur -27.1846 -0.754482 -23.4065
ltibia 33.1753
lfoot -12.5525 0.733474
ltoes -8.49648
937
root 0.143899 17.6878 -2.23903 7.3922 10.6526 3.069
lowerback 13.5094 6.42361 3.74219
upperback 4.60478 9.02098 1.84931
thorax -2.37369 4.48704 -1.4972
lowerneck 1.51769 -6.62134 -4.21094
upperneck -8.05982 -9.25015 -2.58
head -2.7557 -4.38908 0.140802
rclavicle -3.97569e-014 -1.90833e-014
rhumerus 62.6827 13.7786 -60.7433
rradius 48.0042
rwrist -42.8695
rhand -29.9482 25.7182
rfingers 7.12502
rthumb -3.26748 -4.2365
lclavicle -3.97569e-014 -1.90833e-014
lhumerus 72.5856 17.0356 9.27509
lradius 51.564
lwrist -21.9855
lhand -1.88609 13.0156
lfingers 7.12502
lthumb 23.7826 41.5637
rfemur -26.7205 -8.87755 15.6222
rtibia 38.5867
rfoot -17.1508 -17.4326
rtoes -9.64347
lfemur -27.4487 -0.559258 -23.4847
ltibia 33.6888
lfoot -12.8857 1.09029
ltoes -9.15932
938
root 0.15562 17.6707 -2.25655 7.35521 10.1743 3.03552
lowerback 13.6118 6.33227 3.64398
upperback 4.68824 8.8848 1.75486
thorax -2.34695 4.42098 -1.52877
lowerneck 1.4588 -6.47732 -4.08195
upperneck -7.99495 -9.04522 -2.56624
head -2.72957 -4.29436 0.11555
rclavicle 1.15295e-013 7.95139e-015
rhumerus 62.3978 14.5146 -60.065
rradius 48.2101
rwrist -41.782
rhand -29.3597 25.2996
rfingers 7.12502
rthumb -2.69906 -4.66312
lclavicle 1.15295e-013 7.95139e-015
lhumerus 72.8725 16.6558 9.26112
lradius 51.9802
lwrist -21.4388
lhand -1.26938 12.031
lfingers 7.12502
lthumb 24.374 40.5009
rfemur -27.0626 -8.63784 15.5956
rtibia 38.9626
rfoot -17.0395 -17.2879
rtoes -9.47217
lfemur -27.725 -0.367308 -23.5136
ltibia 34.1929
lfoot -13.1073 1.30817
ltoes -9.18545
939
root 0.166393 17.6524 -2.27396 7.32639 9.70298 2.98523
lowerback 13.7543 6.25946 3.551
upperback 4.71011 8.77826 1.68079
thorax -2.40743 4.36629 -1.55593
lowerneck 1.55548 -6.34935 -4.06497
upperneck -7.89313 -8.87009 -2.50505
head -2.71144 -4.21205 0.129292
rclavicle -4.05521e-014 1.74931e-014
rhumerus 61.9931 15.2685 -59.2377
rradius 48.5072
rwrist -40.8866
rhand -28.8893 24.563
rfingers 7.12502
rthumb -2.24482 -5.40497
lclavicle -4.05521e-014 1.74931e-014
lhumerus 73.1087 16.1309 9.24029
lradius 52.463
lwrist -20.6856
lhand -0.878844 11.8294
lfingers 7.12502
lthumb 24.7483 40.2484
rfemur -27.4443 -8.40838 15.6057
rtibia 39.36
rfoot -16.8634 -17.2106
rtoes -10.1006
lfemur -28.0046 -0.167132 -23.5234
ltibia 34.6637
lfoot -13.2956 1.52452
ltoes -9.37329
940
root 0.176418 17.6331 -2.28998 7.29521 9.2041 2.96217
lowerback 13.9018 6.18308 3.41696
upperback 4.73728 8.66076 1.5947
thorax -2.46968 4.30611 -1.57167
lowerneck 1.61265 -6.21543 -4.03588
upperneck -7.81852 -8.68804 -2.47999
head -2.69788 -4.12494 0.128612
rclavicle -4.05521e-014 -1.27222e-014
rhumerus 61.7179 16.0797 -57.9905
rradius 48.9435
rwrist -40.4796
rhand -28.2657 23.6813
rfingers 7.12502
rthumb -1.6425 -6.29214
lclavicle -4.05521e-014 -1.27222e-014
lhumerus 73.2859 15.6178 9.27593
lradius 52.9994
lwrist -19.9188
lhand -0.753272 11.7521
lfingers 7.12502
lthumb 24.8687 40.1545
rfemur -27.8148 -8.16934 15.5827
rtibia 39.7713
rfoot -16.9298 -16.9985
rtoes -10.4351
lfemur -28.2538 0.0489733 -23.56
ltibia 35.1228
lfoot -13.5553 1.75725
ltoes -9.48697
